<svg xmlns="http://www.w3.org/2000/svg" xmlns:xlink="http://www.w3.org/1999/xlink" width="1000" zoomAndPan="magnify" viewBox="0 0 750 749.999995" height="1000" preserveAspectRatio="xMidYMid meet" version="1.0"><defs><clipPath id="a050d058c2"><path d="M 0 419.0625 L 750 419.0625 L 750 749.8125 L 0 749.8125 Z M 0 419.0625 " clip-rule="nonzero"/></clipPath></defs><rect x="-75" width="900" fill="#ffffff" y="-74.999999" height="899.999994" fill-opacity="1"/><rect x="-75" width="900" fill="#ffffff" y="-74.999999" height="899.999994" fill-opacity="1"/><rect x="-75" width="900" fill="#ffffff" y="-74.999999" height="899.999994" fill-opacity="1"/><g clip-path="url(#a050d058c2)"><path fill="#231f20" d="M 200.710938 468.613281 L 334.867188 468.625 L 371.425781 419.238281 L 497.621094 419.238281 L 469.03125 468.625 L 603.195312 468.625 L 623.820312 419.238281 L 750.015625 419.238281 L 737.363281 468.625 L 603.195312 468.625 L 579.796875 524.671875 L 723.007812 524.671875 L 706.578125 588.816406 L 553.015625 588.816406 L 522.125 662.804688 C 522.0625 662.851562 521.996094 662.90625 521.9375 662.957031 L 356.539062 662.957031 L 306.367188 749.625 L 126.859375 749.625 L 191.011719 662.957031 L 25.488281 662.957031 L 0.0273438 691.199219 L 0.0273438 662.957031 L 25.488281 662.957031 L 92.335938 588.816406 L 0.0273438 588.816406 L 0.0273438 573.390625 L 38.367188 524.671875 L 150.167969 524.671875 Z M 579.796875 524.671875 L 436.589844 524.671875 L 399.457031 588.816406 L 553.015625 588.816406 Z M 399.457031 588.816406 L 245.898438 588.816406 L 191.011719 662.957031 L 356.539062 662.957031 Z M 469.03125 468.625 L 334.867188 468.625 L 293.382812 524.671875 L 436.589844 524.671875 Z M 293.382812 524.671875 L 150.167969 524.671875 L 92.335938 588.816406 L 245.898438 588.816406 L 293.382812 524.671875 " fill-opacity="1" fill-rule="evenodd"/></g></svg>