<svg xmlns="http://www.w3.org/2000/svg" xmlns:xlink="http://www.w3.org/1999/xlink" width="1000" zoomAndPan="magnify" viewBox="0 0 750 749.999995" height="1000" preserveAspectRatio="xMidYMid meet" version="1.0"><rect x="-75" width="900" fill="#ffffff" y="-74.999999" height="899.999994" fill-opacity="1"/><rect x="-75" width="900" fill="#ffffff" y="-74.999999" height="899.999994" fill-opacity="1"/><rect x="-75" width="900" fill="#ffffff" y="-74.999999" height="899.999994" fill-opacity="1"/><path fill="#ffffff" d="M 96 96 L 3 96 L 3 3 L 96 3 Z M 282 3 L 189 3 L 189 96 L 282 96 Z M 468 3 L 375 3 L 375 96 L 468 96 Z M 654 3 L 561 3 L 561 96 L 654 96 Z M 654 189 L 747 189 L 747 96 L 654 96 Z M 468 189 L 561 189 L 561 96 L 468 96 Z M 282 189 L 375 189 L 375 96 L 282 96 Z M 96 189 L 189 189 L 189 96 L 96 96 Z M 96 189 L 3 189 L 3 282 L 96 282 Z M 282 189 L 189 189 L 189 282 L 282 282 Z M 468 189 L 375 189 L 375 282 L 468 282 Z M 654 189 L 561 189 L 561 282 L 654 282 Z M 654 375 L 747 375 L 747 282 L 654 282 Z M 468 375 L 561 375 L 561 282 L 468 282 Z M 282 375 L 375 375 L 375 282 L 282 282 Z M 96 375 L 189 375 L 189 282 L 96 282 Z M 96 375 L 3 375 L 3 468 L 96 468 Z M 282 375 L 189 375 L 189 468 L 282 468 Z M 468 375 L 375 375 L 375 468 L 468 468 Z M 654 375 L 561 375 L 561 468 L 654 468 Z M 654 561 L 747 561 L 747 468 L 654 468 Z M 468 561 L 561 561 L 561 468 L 468 468 Z M 282 561 L 375 561 L 375 468 L 282 468 Z M 96 561 L 189 561 L 189 468 L 96 468 Z M 96 561 L 3 561 L 3 654 L 96 654 Z M 282 561 L 189 561 L 189 654 L 282 654 Z M 468 561 L 375 561 L 375 654 L 468 654 Z M 654 561 L 561 561 L 561 654 L 654 654 Z M 654 747 L 747 747 L 747 654 L 654 654 Z M 468 747 L 561 747 L 561 654 L 468 654 Z M 281.910156 747 L 374.910156 747 L 374.910156 654 L 281.910156 654 Z M 96 747 L 189 747 L 189 654 L 96 654 Z M 96 747 " fill-opacity="1" fill-rule="nonzero"/><path fill="#010101" d="M 0 0 L 0 750 L 750 750 L 750 0 Z M 747 189 L 654 189 L 654 282 L 747 282 L 747 375 L 654 375 L 654 468 L 747 468 L 747 561 L 654 561 L 654 654 L 747 654 L 747 747 L 654 747 L 654 654 L 561 654 L 561 747 L 468 747 L 468 654 L 375 654 L 375 747 L 282 747 L 282 654 L 189 654 L 189 747 L 96 747 L 96 654 L 3 654 L 3 561 L 96 561 L 96 468 L 3 468 L 3 375 L 96 375 L 96 282 L 3 282 L 3 189 L 96 189 L 96 96 L 3 96 L 3 3 L 96 3 L 96 96 L 189 96 L 189 3 L 282 3 L 282 96 L 375 96 L 375 3 L 468 3 L 468 96 L 561 96 L 561 3 L 654 3 L 654 96 L 747 96 Z M 654 96 L 654 189 L 561 189 L 561 96 Z M 375 189 L 375 96 L 468 96 L 468 189 Z M 189 189 L 189 96 L 282 96 L 282 189 Z M 189 282 L 96 282 L 96 189 L 189 189 Z M 282 282 L 282 189 L 375 189 L 375 282 Z M 468 189 L 561 189 L 561 282 L 468 282 Z M 561 282 L 654 282 L 654 375 L 561 375 Z M 375 282 L 468 282 L 468 375 L 375 375 Z M 282 375 L 189 375 L 189 282 L 282 282 Z M 189 468 L 96 468 L 96 375 L 189 375 Z M 375 375 L 375 468 L 282 468 L 282 375 Z M 468 375 L 561 375 L 561 468 L 468 468 Z M 561 468 L 654 468 L 654 561 L 561 561 Z M 468 468 L 468 561 L 375 561 L 375 468 Z M 282 468 L 282 561 L 189 561 L 189 468 Z M 189 561 L 189 654 L 96 654 L 96 561 Z M 375 561 L 375 654 L 282 654 L 282 561 Z M 561 561 L 561 654 L 468 654 L 468 561 Z M 561 561 " fill-opacity="1" fill-rule="nonzero"/></svg>